<svg xmlns="http://www.w3.org/2000/svg" viewBox="0 0 360 220">
  <defs>
    <linearGradient id="bg" x1="0" x2="1" y1="0" y2="1">
      <stop stop-color="#f8fbff"/>
      <stop offset="1" stop-color="#dfeaff"/>
    </linearGradient>
  </defs>
  <rect width="360" height="220" fill="url(#bg)"/>
  <g fill="none" stroke="#4080ff" stroke-width="3" opacity=".75">
    <path d="M130 88 178 118 226 82M178 118v56M130 88v60M226 82v66"/>
  </g>
  <g fill="#4080ff">
    <circle cx="130" cy="88" r="11"/><circle cx="178" cy="118" r="11"/><circle cx="226" cy="82" r="11"/>
    <circle cx="130" cy="148" r="11" opacity=".55"/><circle cx="178" cy="174" r="11" opacity=".55"/><circle cx="226" cy="148" r="11" opacity=".55"/>
  </g>
  <path d="M255 46c50-21 80 45 44 70-18 12-22 33-5 48" fill="none" stroke="#1d2129" stroke-width="5" stroke-linecap="round"/>
  <path d="M182 172c11-18 26-20 34-2 6-26 31-15 27 7" fill="none" stroke="#1d2129" stroke-width="5" stroke-linecap="round"/>
  <path d="M88 176h202" stroke="#fff" stroke-width="4" opacity=".95"/>
</svg>
