<svg xmlns="http://www.w3.org/2000/svg" viewBox="0 0 760 620">
  <defs>
    <linearGradient id="paper" x1="0" y1="0" x2="1" y2="1">
      <stop stop-color="#f9f1db"/>
      <stop offset="1" stop-color="#e5eef2"/>
    </linearGradient>
    <radialGradient id="glow" cx="50%" cy="45%" r="55%">
      <stop stop-color="#93d5dc" stop-opacity=".55"/>
      <stop offset=".5" stop-color="#1661ab" stop-opacity=".2"/>
      <stop offset="1" stop-color="#1661ab" stop-opacity="0"/>
    </radialGradient>
  </defs>
  <rect width="760" height="620" rx="28" fill="url(#paper)"/>
  <circle cx="380" cy="285" r="210" fill="url(#glow)"/>
  <circle cx="380" cy="285" r="152" fill="none" stroke="#1661ab" stroke-width="2" opacity=".34"/>
  <circle cx="380" cy="285" r="102" fill="#1661ab" opacity=".12"/>
  <g fill="#f9f1db" stroke="#1661ab" stroke-width="4" stroke-linejoin="round">
    <path d="M418 247 386 407 337 323 255 285z"/>
    <path d="M418 247 337 323 376 164z" fill="#1661ab"/>
  </g>
  <g fill="#1661ab" font-family="Inter, Arial, sans-serif" font-weight="700">
    <text x="90" y="96" font-size="24">AI DRI Compass</text>
    <text x="90" y="136" font-size="16" opacity=".72">从会用 AI 到负责价值闭环</text>
  </g>
  <g fill="none" stroke="#1661ab" stroke-width="2" opacity=".58">
    <path d="M136 410c70-70 135-46 190 6 70 66 138 66 212-4" stroke-dasharray="8 10"/>
    <circle cx="144" cy="408" r="6" fill="#f9f1db"/>
    <circle cx="536" cy="413" r="6" fill="#f9f1db"/>
  </g>
  <g fill="#a7a8bd" opacity=".3">
    <circle cx="610" cy="118" r="42"/>
    <circle cx="136" cy="500" r="32"/>
    <circle cx="620" cy="482" r="24"/>
  </g>
</svg>
